<?xml version="1.0" encoding="utf-8"?>
<!-- Generator: Adobe Illustrator 22.0.1, SVG Export Plug-In . SVG Version: 6.00 Build 0)  -->
<svg version="1.1" id="Layer_1" xmlns="http://www.w3.org/2000/svg" xmlns:xlink="http://www.w3.org/1999/xlink" x="0px" y="0px"
	 viewBox="0 0 1234 231" style="enable-background:new 0 0 1234 231;" xml:space="preserve">
<style type="text/css">
	.st0{fill:#FFFFFF;}
</style>
<g>
	<path class="st0" d="M463.2,115.2c-5.4-2.6-13.9-5.4-21.5-5.5c-6.9,0-10.4,2.4-10.4,6.1c0,3.9,4.9,4.9,11,5.8l6,0.9
		c14.6,2.2,22.7,8.8,22.7,20.2c0,13.9-11.4,22.9-30.9,22.9c-9.2,0-21.2-1.7-30-7.9l7.2-13.8c5.8,3.8,12.8,6.6,22.9,6.6
		c8.4,0,12.4-2.4,12.4-6.3c0-3.3-3.4-5.1-11.2-6.2l-5.5-0.8c-15.6-2.2-23.3-9-23.3-20.4c0-13.8,10.7-22,28.4-22
		c10.8,0,19.2,2,28.2,6.4L463.2,115.2z"/>
	<path class="st0" d="M590.4,120.9v42.9h-18.1v-37.1c0-9.7-4.9-15.1-13.1-15.1c-7.8,0-14.3,5.1-14.3,15.2v36.9h-18.1v-37.1
		c0-9.7-4.9-15.1-13.1-15.1c-7.8,0-14.3,5.1-14.3,15.2v36.9h-18.1V96.5h17.7v7.9c4.8-7.2,12.2-9.7,19.8-9.7
		c9.7,0,17.7,4.4,22.2,11.5c5.2-8.6,14-11.5,22.9-11.5C579.7,94.7,590.4,105.3,590.4,120.9z"/>
	<path class="st0" d="M671.1,163.8h-17.7v-7.4c-4.4,5.4-10.9,9.2-20.2,9.2c-18.6,0-32.6-15.2-32.6-35.5c0-20.2,14-35.5,32.6-35.5
		c9.2,0,15.7,3.8,20.2,9.2v-7.4h17.7V163.8z M619.1,130.1c0,10.3,6.7,18.6,17.4,18.6c10.4,0,17.4-7.9,17.4-18.6
		c0-10.6-7-18.6-17.4-18.6C625.9,111.5,619.1,119.8,619.1,130.1z"/>
	<path class="st0" d="M732,96.1l-2.7,18c-3-1.3-7.3-2.2-11-2.2c-8.4,0-14.2,5.1-14.2,15.2v36.7H686V96.5h17.6v7.4
		c4.2-6.3,10.7-9.2,19-9.2C726.5,94.7,729.5,95.2,732,96.1z"/>
	<path class="st0" d="M790.5,112.6h-24.4v24.6c0,8.4,4.4,11.5,10.1,11.5c4.3,0,9-2.2,12.6-4.4l6.7,14.2c-5.9,4-12.7,7.1-22.3,7.1
		c-16.7,0-25.2-9.5-25.2-26.9v-26.1h-13V96.5h13v-20h18.2v20h24.4V112.6z"/>
	<path class="st0" d="M883.1,163.8h-23.6L823,66.5h20.7l27.9,77.7l28-77.7h20.2L883.1,163.8z"/>
	<path class="st0" d="M969.2,66.5c23.2,0,35.7,11,35.7,29.6c0,16-11.1,26.9-29.8,28.7l30,39h-23.5l-28.4-38.7h-5.7v38.7h-19.4V66.5
		H969.2z M947.5,84.4v23.8h21.4c10.6,0,16.1-3.9,16.1-12.1c0-8.1-5.8-11.8-16.1-11.8H947.5z"/>
	<path class="st0" d="M1065.4,163.8h-18.1V63.7h18.1V163.8z"/>
	<path class="st0" d="M1146.6,163.8h-17.7v-7.4c-4.4,5.4-10.9,9.2-20.2,9.2c-18.6,0-32.6-15.2-32.6-35.5c0-20.2,14-35.5,32.6-35.5
		c9.2,0,15.7,3.8,20.2,9.2v-7.4h17.7V163.8z M1094.6,130.1c0,10.3,6.7,18.6,17.4,18.6c10.4,0,17.4-7.9,17.4-18.6
		c0-10.6-7-18.6-17.4-18.6C1101.4,111.5,1094.6,119.8,1094.6,130.1z"/>
	<path class="st0" d="M1232,130.1c0,20.2-14,35.5-32.6,35.5c-9.3,0-15.8-3.8-20.2-9.2v7.4h-17.7V63.7h18.1v39.8
		c4.4-5.3,10.7-8.8,19.7-8.8C1218,94.7,1232,109.9,1232,130.1z M1178.7,130.1c0,10.6,7,18.6,17.3,18.6c10.7,0,17.4-8.3,17.4-18.6
		c0-10.3-6.7-18.6-17.4-18.6C1185.7,111.5,1178.7,119.5,1178.7,130.1z"/>
</g>
<path class="st0" d="M269.5,1.3c-33.7,0-63.9,14.7-84.9,37.9c-15.9-17.6-37.2-30.3-61.2-35.4L81.2,63.9c5.8-2,11.9-3.2,18.3-3.2
	c30.5,0,55.2,24.8,55.2,55.2c0,30.5-24.8,55.2-55.2,55.2c-30.3,0-54.9-24.5-55.2-54.6l-42,59.9c20.3,32.4,56.2,54.1,97.2,54.1
	c33.7,0,63.9-14.7,84.9-37.9c15.9,17.6,37.1,30.3,61.1,35.4l42-60c-5.7,2-11.8,3.1-18.1,3.1c-30.5,0-55.2-24.8-55.2-55.2
	c0-30.5,24.8-55.2,55.2-55.2c30.2,0,54.8,24.3,55.2,54.4l41.9-59.8C346.3,22.9,310.4,1.3,269.5,1.3z"/>
</svg>
